<?xml version="1.0" encoding="UTF-8"?>
<svg id="b" data-name="Layer_2" xmlns="http://www.w3.org/2000/svg" viewBox="0 0 32 28.26">
  <g id="c" data-name="b">
    <path d="M10.82,28.26c-.31-.83-.69-1.64-.91-2.49-1.6-6.22-1.04-12.26,2.24-17.77C14.88,3.41,18.99.75,24.6,1.11c4.46.29,7.43,3.7,7.4,8.44-.02,4.71-2.66,7.54-7.34,7.8-3.71.21-7.15,1.2-9.65,4.06-1.21,1.39-1.91,3.23-2.8,4.88-.33.61-.55,1.27-.82,1.9-.19.02-.39.03-.58.05h0Z"/>
    <path d="M7.65,19.86c-.46-.2-1.04-.32-1.44-.64C2.31,16.08-.46,12.35.06,7,.42,3.33,2.87.96,6.18.12c2.94-.75,6.15,2.12,5.44,5.61-.14.68-.41,1.35-.73,1.96-1.77,3.35-2.99,6.83-2.83,10.68.02.35-.04.7-.1,1.05-.02.12-.15.22-.3.44h0Z"/>
  </g>
</svg>