<?xml version="1.0" encoding="UTF-8"?>
<svg id="b" data-name="Layer_2" xmlns="http://www.w3.org/2000/svg" viewBox="0 0 755.21 249.27">
  <g id="c" data-name="Layer_1">
    <g>
      <path d="M383.51,227.14c.37,0,.74,0,1.12,0,5.49.06,10.99.37,16.49.77,1.49-.79,2.99-1.55,4.51-2.29-.16-22.8-2.31-44.24,8.48-64.67,5.72.4,11.24,1.18,16.75,1.1,17.89-.26,34.14-4.85,45.82-19.58,9.62-12.14,11.62-31.26,4.61-40.53-7.93-10.48-27.01-15.79-41.12-10.8-7.71,2.73-15.02,6.59-23.15,10.23-1.14-1.67-2.34-3.41-3.53-5.17-4.14-6.13-9.66-9.5-17.05-6.88-8.28,2.93-12.95,9.35-11.72,18.05,3.59,25.35-2.42,49.71-6.68,74.28-2.75,15.86-4.38,31.65,2.6,44.58.97.25,1.93.56,2.87.92ZM455.38,121.24c-11.49,18.28-18.83,20.98-35.77,14.13,5.87-19.35,18.41-24.52,35.77-14.13Z" style="fill: #fff;"/>
      <path d="M588.22,249.27c-2.41-6.53-5.41-12.91-7.14-19.62-12.61-49-8.18-96.66,17.67-140.1,21.48-36.1,53.92-57.12,98.09-54.22,35.17,2.31,58.55,29.2,58.36,66.54-.19,37.15-20.98,59.42-57.87,61.51-29.23,1.66-56.35,9.49-76.03,32.01-9.54,10.93-15.02,25.45-22.05,38.5-2.57,4.77-4.33,9.98-6.46,14.99-1.53.13-3.06.26-4.59.39Z" style="fill: #fff;"/>
      <path d="M11.59,60.08c-14.77-11.51-15.29-20.79-2.29-31.04,3.44-2.71,7.51-4.83,11.61-6.43C66.55,4.8,113.61-3.62,162.7,1.47c24.61,2.55,46.21,11.22,62.95,30.96,14.84-6,29.16-5.98,39.2,7.5,3.25,4.37,4.41,13.7,1.93,18.27-7.14,13.18-21.14,8.98-33.65,9.5-18.35,62.3-70.07,82.91-125.18,99.02-9.03,2.64-18.35,4.63-27.68,5.82-22.46,2.86-36.85-11.52-35.16-33.65,2.31-30.37,4.03-60.79,6.15-93.39-14.45,5.31-26.72,9.81-39.68,14.57ZM73.25,140.92c9.07.45,15.68,1.92,21.87.89,27.41-4.51,52.09-15.76,73.28-33.64,11.94-10.08,21.71-22.18,25.22-38.28,3.9-17.86-.85-29.69-18.12-35.86-10.11-3.62-21.62-4.13-32.54-4.46-19.86-.61-39.7.27-58.91,8.5-3.58,34.07-7.09,67.48-10.8,102.85Z" style="fill: #fff;"/>
      <path d="M315.2,101.71c14.8-9.09,28.44-16.39,45.12-10.31,21.1,7.68,28.29,25.82,16.5,45.04-11.53,18.79-29.74,25.7-51.11,25.38-4.95-.07-9.9-.74-15.51-1.18-7.39,20.21-13.77,40-5.94,61.03-15.5,10.42-28.08,6.2-30.61-10.88-1.26-8.5.8-17.55,1.77-26.31.67-6.03,2.05-11.97,3.27-18.87-9.65.68-18.71,2.05-27.72,1.79-17.58-.51-27.55-10.64-28.38-28.29-.41-8.87-.35-17.82.3-26.68.9-12.31,7.86-20.13,16.35-19.44,8.18.66,12.83,7.76,12.76,20.18-.04,6.67-.69,13.33-.97,19.99-.31,7.39,2.17,13.05,9.74,15.32,18.33-5.36,23.19-11.52,23.02-29.17-.02-2.22-.26-4.44-.56-6.64-1.3-9.48-.36-18.16,9.86-22.28,10.7-4.32,16.44,2.83,22.08,11.31ZM316.97,136.32c20.02,5.14,30.5-1.25,31.43-18.24-19.44-4.37-27.1-.18-31.43,18.24Z" style="fill: #fff;"/>
      <path d="M563.3,183.09c-3.66-1.58-8.17-2.5-11.35-5.06-30.74-24.71-52.62-54.16-48.48-96.33,2.84-28.94,22.15-47.58,48.24-54.21,23.18-5.89,48.51,16.7,42.87,44.19-1.1,5.34-3.23,10.64-5.79,15.48-13.94,26.38-23.58,53.82-22.3,84.21.12,2.74-.33,5.52-.79,8.24-.16.93-1.15,1.71-2.4,3.47Z" style="fill: #fff;"/>
    </g>
  </g>
</svg>